<svg width="176" height="181" viewBox="0 0 176 181" fill="none" xmlns="http://www.w3.org/2000/svg">
<path d="M54.4 142.4C45.16 142.4 37.6 150.185 37.6 159.7C37.6 169.215 45.16 177 54.4 177C63.64 177 71.2 169.215 71.2 159.7C71.2 150.185 63.64 142.4 54.4 142.4ZM4 4V21.3H20.8L51.04 87.04L39.28 107.8C38.44 110.395 37.6 113.855 37.6 116.45C37.6 125.965 45.16 133.75 54.4 133.75H155.2V116.45H57.76C56.92 116.45 56.08 115.585 56.08 114.72V113.855L63.64 99.1497H125.8C132.52 99.1497 137.56 95.6897 140.08 90.4997L170.32 34.275C172 32.545 172 31.68 172 29.95C172 24.76 168.64 21.3 163.6 21.3H39.28L31.72 4H4ZM138.4 142.4C129.16 142.4 121.6 150.185 121.6 159.7C121.6 169.215 129.16 177 138.4 177C147.64 177 155.2 169.215 155.2 159.7C155.2 150.185 147.64 142.4 138.4 142.4Z" stroke="#3BB139" stroke-width="8"/>
<circle cx="77" cy="54" r="5" fill="#3BB139"/>
<circle cx="116" cy="54" r="5" fill="#3BB139"/>
<path d="M86.5 73.5C90.1667 68.5 98.5 62.0001 106.5 73.5" stroke="#3BB139" stroke-width="6"/>
</svg>
