<svg id="Agrupar_1" data-name="Agrupar 1" xmlns="http://www.w3.org/2000/svg" width="472" height="334.312" viewBox="0 0 472 334.312">
  <defs>
    <style>
      .cls-1 {
        fill: none;
        stroke-linecap: round;
        stroke-width: 20px;
      }

      .cls-1, .cls-3 {
        stroke: #3bb139;
        stroke-linejoin: round;
        fill-rule: evenodd;
      }

      .cls-2, .cls-3 {
        fill: #3bb139;
      }

      .cls-3 {
        stroke-width: 2px;
      }
    </style>
  </defs>
  <path id="Forma_3" data-name="Forma 3" class="cls-1" d="M486,550s-10.476,11.493-30,19c-17.206,7.123-50.107,6.575-71-6-2.01-1.21-8.327-5.627-10-7a106.151,106.151,0,0,1-17.032-19.535C334.989,502.031,350,472,350,472s1.984-5.656,12-8c4.058-.95,10.482.033,17,0,16.3-.082,29,0,29,0s4.7-.729,7-2c3.183-1.762,7.686-3.848,12-10,2.39-3.409,3.958-4.84,6-11,9.85-29.713,16-40,16-40s26.81-43.486,88-39c69.154,5.07,95,52,95,52s32.417,49.082,19,115c-8.5,41.769-57,45-57,45s-41.217,4.093-57.807-30.759c-0.789-1.657-2.522-9.4-3.193-11.241-6.221-44.984-3-136-3-136" transform="translate(-264 -351.688)"/>
  <circle id="Elipse_1" data-name="Elipse 1" class="cls-2" cx="206.219" cy="113.406" r="15"/>
  <path id="GreenPet" class="cls-3" d="M327.051,640.742h-18.7a5.406,5.406,0,0,0-3.75,1.3,4.48,4.48,0,0,0,0,6.6,5.4,5.4,0,0,0,3.75,1.3h13.8v17.8a29.123,29.123,0,0,1-16.1,5,26.514,26.514,0,0,1-14.35-4.1,29.743,29.743,0,0,1-10.4-11.1,32.625,32.625,0,0,1,0-30.75,29.65,29.65,0,0,1,10.4-11.15,26.523,26.523,0,0,1,14.35-4.1,27.727,27.727,0,0,1,10.1,1.55,29.127,29.127,0,0,1,8,5.05,5.3,5.3,0,0,0,3.4,1.3,4.994,4.994,0,0,0,3.45-1.3,4.238,4.238,0,0,0,1.45-3.3,5.791,5.791,0,0,0-.4-2.25,4.73,4.73,0,0,0-1.6-1.85,39.442,39.442,0,0,0-11.25-6.6,38.841,38.841,0,0,0-13.15-2,37.073,37.073,0,0,0-19.55,5.35,38.6,38.6,0,0,0-13.95,14.5,40.687,40.687,0,0,0-5.1,20.15,41.163,41.163,0,0,0,5.1,20.3,38.11,38.11,0,0,0,13.95,14.5,38.786,38.786,0,0,0,44.05-3.4,4.5,4.5,0,0,0,1.6-3.7v-23.9a5.078,5.078,0,0,0-1.45-3.75,4.953,4.953,0,0,0-3.65-1.45h0Zm47.5-14.8a22.451,22.451,0,0,0-9.4,2,21.1,21.1,0,0,0-7.4,5.5v-1.9q0-5-5-5a4.531,4.531,0,0,0-5,5v44.7a4.972,4.972,0,0,0,1.3,3.75,5.121,5.121,0,0,0,3.7,1.25,4.975,4.975,0,0,0,3.75-1.3,5.125,5.125,0,0,0,1.25-3.7v-29.2a10.548,10.548,0,0,1,4.4-8.9q4.4-3.3,11.6-3.3a39.5,39.5,0,0,1,6.5.7,8.346,8.346,0,0,0,1.5.2,3.87,3.87,0,0,0,4-3.2,3.532,3.532,0,0,0,.1-1q0-2.4-3-4a17.834,17.834,0,0,0-8.3-1.6h0Zm66.9,27.1a31.331,31.331,0,0,0-3-14,22.429,22.429,0,0,0-8.6-9.5,25.144,25.144,0,0,0-13.3-3.4,27.4,27.4,0,0,0-13.95,3.55,24.949,24.949,0,0,0-9.6,9.9,29.57,29.57,0,0,0-3.45,14.35,27.991,27.991,0,0,0,3.65,14.3,25.752,25.752,0,0,0,10.15,9.85,30.538,30.538,0,0,0,24.35,1.85,27.656,27.656,0,0,0,8.45-4.4,3.622,3.622,0,0,0,1.6-3,4.37,4.37,0,0,0-1.8-3.4,4.3,4.3,0,0,0-3-1,5.184,5.184,0,0,0-3.3,1.1,18.647,18.647,0,0,1-5.35,2.7,20.3,20.3,0,0,1-19.1-3.2,17.614,17.614,0,0,1-6.35-11.3h38a4.566,4.566,0,0,0,3.3-1.25,4.187,4.187,0,0,0,1.3-3.15h0Zm-24.9-18.3a14.675,14.675,0,0,1,10.7,4,17.73,17.73,0,0,1,5,10.7h-33.3a17.956,17.956,0,0,1,5.75-10.7q4.55-4,11.85-4h0Zm85,18.3a31.331,31.331,0,0,0-3-14,22.429,22.429,0,0,0-8.6-9.5,25.144,25.144,0,0,0-13.3-3.4,27.4,27.4,0,0,0-13.95,3.55,24.949,24.949,0,0,0-9.6,9.9,29.57,29.57,0,0,0-3.45,14.35,27.991,27.991,0,0,0,3.65,14.3,25.752,25.752,0,0,0,10.15,9.85,30.538,30.538,0,0,0,24.35,1.85,27.656,27.656,0,0,0,8.45-4.4,3.622,3.622,0,0,0,1.6-3,4.37,4.37,0,0,0-1.8-3.4,4.3,4.3,0,0,0-3-1,5.184,5.184,0,0,0-3.3,1.1,18.647,18.647,0,0,1-5.35,2.7,20.3,20.3,0,0,1-19.1-3.2,17.614,17.614,0,0,1-6.35-11.3h38a4.566,4.566,0,0,0,3.3-1.25,4.187,4.187,0,0,0,1.3-3.15h0Zm-24.9-18.3a14.675,14.675,0,0,1,10.7,4,17.73,17.73,0,0,1,5,10.7h-33.3a17.956,17.956,0,0,1,5.75-10.7q4.55-4,11.85-4h0Zm65.1-8.7a25.2,25.2,0,0,0-9.4,1.75,22.208,22.208,0,0,0-7.6,4.95v-1.1a5.2,5.2,0,0,0-8.75-3.7,4.9,4.9,0,0,0-1.45,3.7v44.6a5.2,5.2,0,0,0,8.8,3.65,5.047,5.047,0,0,0,1.4-3.65v-28.2a11.389,11.389,0,0,1,1.95-6.5,13.574,13.574,0,0,1,5.4-4.6,17.074,17.074,0,0,1,7.65-1.7q7.2,0,11.55,4.15t4.35,12.25v24.6a5.1,5.1,0,1,0,10.2,0v-24.6a28.837,28.837,0,0,0-3.1-13.85,21.152,21.152,0,0,0-8.6-8.75,25.471,25.471,0,0,0-12.4-3h0Zm47.2,55.2a4.985,4.985,0,0,0,3.75-1.5,5.124,5.124,0,0,0,1.45-3.7v-21.9h14.8a27.146,27.146,0,0,0,13.25-3.2,22.92,22.92,0,0,0,9.1-8.9,25.794,25.794,0,0,0,3.25-13,27.328,27.328,0,0,0-3.25-13.4,23.234,23.234,0,0,0-9.1-9.2,26.5,26.5,0,0,0-13.25-3.3h-20a5.12,5.12,0,0,0-3.7,1.45,4.985,4.985,0,0,0-1.5,3.75v67.7a5.123,5.123,0,0,0,5.2,5.2h0Zm5.2-36.7v-31.8h14.8a14.833,14.833,0,0,1,11.2,4.6,16.243,16.243,0,0,1,4.4,11.7,15,15,0,0,1-4.4,11.15,15.268,15.268,0,0,1-11.2,4.35h-14.8Zm98,8.5a31.331,31.331,0,0,0-3-14,22.431,22.431,0,0,0-8.6-9.5,25.143,25.143,0,0,0-13.3-3.4,27.4,27.4,0,0,0-13.951,3.55,24.955,24.955,0,0,0-9.6,9.9,29.58,29.58,0,0,0-3.449,14.35,27.982,27.982,0,0,0,3.65,14.3,25.743,25.743,0,0,0,10.149,9.85,30.54,30.54,0,0,0,24.351,1.85,27.662,27.662,0,0,0,8.449-4.4,3.622,3.622,0,0,0,1.6-3,4.372,4.372,0,0,0-1.8-3.4,4.3,4.3,0,0,0-3-1,5.185,5.185,0,0,0-3.3,1.1,18.654,18.654,0,0,1-5.349,2.7,20.3,20.3,0,0,1-19.1-3.2,17.616,17.616,0,0,1-6.351-11.3h38a4.566,4.566,0,0,0,3.3-1.25,4.188,4.188,0,0,0,1.3-3.15h0Zm-24.9-18.3a14.673,14.673,0,0,1,10.7,4,17.73,17.73,0,0,1,5,10.7h-33.3a17.945,17.945,0,0,1,5.75-10.7q4.548-4,11.85-4h0Zm61.2,36.5h-3.4a6.72,6.72,0,0,1-5.4-2.7,10.258,10.258,0,0,1-2.2-6.7v-24.7h8.5a4.815,4.815,0,0,0,3.4-1.2,3.915,3.915,0,0,0,1.3-3,4.148,4.148,0,0,0-1.3-3.2,4.815,4.815,0,0,0-3.4-1.2h-8.5v-14.4a5,5,0,1,0-10,0v14.4h-4.6a4.813,4.813,0,0,0-3.4,1.2,4.145,4.145,0,0,0-1.3,3.2,3.912,3.912,0,0,0,1.3,3,4.813,4.813,0,0,0,3.4,1.2h4.6v24.7a21.036,21.036,0,0,0,2.3,9.9,17.756,17.756,0,0,0,6.35,6.95,16.46,16.46,0,0,0,8.95,2.55h1.8a6.338,6.338,0,0,0,4.25-1.4,4.505,4.505,0,0,0,1.65-3.6,5.206,5.206,0,0,0-1.25-3.6,3.939,3.939,0,0,0-3.05-1.4h0Z" transform="translate(-264 -351.688)"/>
</svg>
