<svg xmlns="http://www.w3.org/2000/svg" width="548.375" height="141" viewBox="0 0 548.375 141">
  <defs>
    <style>
      .cls-1 {
        fill: #3bb139;
        fill-rule: evenodd;
      }
    </style>
  </defs>
  <path id="GreenPet_Somos_apaixonados_por_pets_copiar" data-name="GreenPet Somos apaixonados por pets copiar" class="cls-1" d="M228.734,144.5h-22.4a6.475,6.475,0,0,0-4.491,1.557,5.366,5.366,0,0,0,0,7.9,6.47,6.47,0,0,0,4.491,1.557h16.527v21.316a34.87,34.87,0,0,1-19.281,5.988,31.742,31.742,0,0,1-17.185-4.91,35.6,35.6,0,0,1-12.455-13.293,39.068,39.068,0,0,1,0-36.825A35.5,35.5,0,0,1,186.4,114.439a31.759,31.759,0,0,1,17.185-4.91,33.2,33.2,0,0,1,12.1,1.856,34.908,34.908,0,0,1,9.581,6.048,6.353,6.353,0,0,0,4.072,1.557,5.981,5.981,0,0,0,4.131-1.557,5.075,5.075,0,0,0,1.737-3.952,6.951,6.951,0,0,0-.479-2.695,5.662,5.662,0,0,0-1.916-2.215,47.244,47.244,0,0,0-13.473-7.9,46.517,46.517,0,0,0-15.748-2.4,44.4,44.4,0,0,0-23.413,6.407,46.232,46.232,0,0,0-16.706,17.364,48.727,48.727,0,0,0-6.107,24.132,49.288,49.288,0,0,0,6.107,24.31,45.639,45.639,0,0,0,16.706,17.365,46.45,46.45,0,0,0,52.753-4.072,5.382,5.382,0,0,0,1.917-4.431V150.725a6.088,6.088,0,0,0-1.737-4.491,5.935,5.935,0,0,0-4.371-1.736h0Zm53.89-17.724a26.888,26.888,0,0,0-11.257,2.4,25.274,25.274,0,0,0-8.862,6.587V133.48q0-5.986-5.988-5.988a5.427,5.427,0,0,0-5.988,5.988v53.532a5.953,5.953,0,0,0,1.557,4.491,6.13,6.13,0,0,0,4.431,1.5,5.963,5.963,0,0,0,4.491-1.557,6.14,6.14,0,0,0,1.5-4.431V152.043a12.632,12.632,0,0,1,5.269-10.659q5.268-3.951,13.892-3.952a47.321,47.321,0,0,1,7.784.839,9.926,9.926,0,0,0,1.8.239q3.711,0,4.791-3.832a4.279,4.279,0,0,0,.119-1.2q0-2.874-3.592-4.79t-9.94-1.916h0Zm77.123,32.454a37.526,37.526,0,0,0-3.592-16.766,26.866,26.866,0,0,0-10.3-11.377,30.123,30.123,0,0,0-15.928-4.072,32.819,32.819,0,0,0-16.706,4.252,29.88,29.88,0,0,0-11.5,11.856,35.419,35.419,0,0,0-4.132,17.185,33.51,33.51,0,0,0,4.372,17.125,30.826,30.826,0,0,0,12.155,11.8,36.568,36.568,0,0,0,29.161,2.216,33.147,33.147,0,0,0,10.119-5.269,4.338,4.338,0,0,0,1.916-3.593,5.234,5.234,0,0,0-2.155-4.072,5.152,5.152,0,0,0-3.593-1.2,6.208,6.208,0,0,0-3.952,1.318,22.3,22.3,0,0,1-6.407,3.233,24.311,24.311,0,0,1-22.874-3.832,21.091,21.091,0,0,1-7.6-13.533h45.508a5.465,5.465,0,0,0,3.952-1.5,5.015,5.015,0,0,0,1.556-3.772h0Zm-29.819-21.915q7.9,0,12.814,4.79t5.988,12.814H308.851a21.5,21.5,0,0,1,6.886-12.814q5.448-4.788,14.191-4.79h0Zm98.8,21.915a37.526,37.526,0,0,0-3.592-16.766,26.866,26.866,0,0,0-10.3-11.377,30.123,30.123,0,0,0-15.928-4.072,32.819,32.819,0,0,0-16.706,4.252,29.88,29.88,0,0,0-11.5,11.856,35.419,35.419,0,0,0-4.132,17.185,33.51,33.51,0,0,0,4.372,17.125,30.826,30.826,0,0,0,12.155,11.8,36.568,36.568,0,0,0,29.161,2.216,33.147,33.147,0,0,0,10.119-5.269,4.341,4.341,0,0,0,1.916-3.593,5.234,5.234,0,0,0-2.155-4.072,5.152,5.152,0,0,0-3.593-1.2,6.208,6.208,0,0,0-3.952,1.318,22.3,22.3,0,0,1-6.407,3.233,24.311,24.311,0,0,1-22.874-3.832,21.091,21.091,0,0,1-7.6-13.533h45.508a5.465,5.465,0,0,0,3.952-1.5,5.015,5.015,0,0,0,1.556-3.772h0Zm-29.819-21.915q7.9,0,12.814,4.79t5.988,12.814H377.831a21.5,21.5,0,0,1,6.886-12.814q5.448-4.788,14.191-4.79h0Zm74.966-10.419a30.192,30.192,0,0,0-11.257,2.095,26.622,26.622,0,0,0-9.1,5.928V133.6a6.227,6.227,0,0,0-10.479-4.431A5.879,5.879,0,0,0,441.3,133.6v53.412a6.226,6.226,0,0,0,10.539,4.371,6.039,6.039,0,0,0,1.677-4.371V153.24a13.64,13.64,0,0,1,2.335-7.784,16.261,16.261,0,0,1,6.467-5.509,20.457,20.457,0,0,1,9.161-2.036q8.624,0,13.832,4.97t5.21,14.671v29.46a6.108,6.108,0,1,0,12.215,0v-29.46q0-9.7-3.713-16.587a25.324,25.324,0,0,0-10.3-10.479,30.5,30.5,0,0,0-14.85-3.592h0ZM527.405,193a5.969,5.969,0,0,0,4.491-1.8,6.134,6.134,0,0,0,1.736-4.431V160.545h17.724a32.5,32.5,0,0,0,15.868-3.832,27.44,27.44,0,0,0,10.9-10.658,30.878,30.878,0,0,0,3.892-15.569,32.713,32.713,0,0,0-3.892-16.047,27.825,27.825,0,0,0-10.9-11.018,31.735,31.735,0,0,0-15.868-3.952H527.405a6.13,6.13,0,0,0-4.431,1.737,5.968,5.968,0,0,0-1.8,4.491v81.075A6.136,6.136,0,0,0,527.405,193h0Zm6.227-43.951V110.966h17.724a17.761,17.761,0,0,1,13.413,5.509,19.453,19.453,0,0,1,5.27,14.011,17.97,17.97,0,0,1-5.27,13.353,18.283,18.283,0,0,1-13.413,5.21H533.632ZM648,159.228a37.513,37.513,0,0,0-3.593-16.766,26.859,26.859,0,0,0-10.3-11.377,30.117,30.117,0,0,0-15.927-4.072,32.822,32.822,0,0,0-16.707,4.252,29.878,29.878,0,0,0-11.5,11.856,35.408,35.408,0,0,0-4.132,17.185,33.52,33.52,0,0,0,4.371,17.125,30.835,30.835,0,0,0,12.156,11.8,36.568,36.568,0,0,0,29.161,2.216,33.147,33.147,0,0,0,10.119-5.269,4.341,4.341,0,0,0,1.916-3.593,5.234,5.234,0,0,0-2.155-4.072,5.154,5.154,0,0,0-3.593-1.2,6.206,6.206,0,0,0-3.952,1.318,22.323,22.323,0,0,1-6.407,3.233,24.311,24.311,0,0,1-22.874-3.832,21.091,21.091,0,0,1-7.6-13.533h45.507a5.462,5.462,0,0,0,3.952-1.5A5.012,5.012,0,0,0,648,159.228h0Zm-29.819-21.915q7.9,0,12.814,4.79t5.988,12.814H597.1a21.507,21.507,0,0,1,6.886-12.814q5.448-4.788,14.192-4.79h0Zm70.3,43.711h-4.072a8.047,8.047,0,0,1-6.467-3.233,12.286,12.286,0,0,1-2.635-8.024v-29.58h10.18a5.765,5.765,0,0,0,4.071-1.437,4.69,4.69,0,0,0,1.557-3.593,4.968,4.968,0,0,0-1.557-3.832,5.765,5.765,0,0,0-4.071-1.437H675.3V112.643a5.989,5.989,0,1,0-11.975,0v17.245h-5.509a5.764,5.764,0,0,0-4.072,1.437,4.965,4.965,0,0,0-1.557,3.832,4.686,4.686,0,0,0,1.557,3.593,5.764,5.764,0,0,0,4.072,1.437h5.509v29.58a25.2,25.2,0,0,0,2.754,11.856,21.26,21.26,0,0,0,7.605,8.323A19.708,19.708,0,0,0,684.405,193h2.155a7.588,7.588,0,0,0,5.09-1.677,5.392,5.392,0,0,0,1.976-4.311,6.234,6.234,0,0,0-1.5-4.311,4.715,4.715,0,0,0-3.652-1.677h0ZM162.744,230.875a13.991,13.991,0,0,0,5.194-.957,8.808,8.808,0,0,0,3.881-2.887,7.448,7.448,0,0,0,1.463-4.631,7.731,7.731,0,0,0-2.475-5.982,11.765,11.765,0,0,0-6.975-2.718q-4.05-.412-5.625-1.725a4.082,4.082,0,0,1-1.575-3.263,3.561,3.561,0,0,1,1.762-3.206,8.575,8.575,0,0,1,4.613-1.106,7.576,7.576,0,0,1,3.843.881,7.131,7.131,0,0,1,2.532,2.569,1.911,1.911,0,0,0,.75.768,2.059,2.059,0,0,0,1.05.282,1.78,1.78,0,0,0,.975-0.263,1.589,1.589,0,0,0,.75-1.35,2.548,2.548,0,0,0-.45-1.35,11.225,11.225,0,0,0-3.75-3.75,10.494,10.494,0,0,0-5.438-1.312,14.76,14.76,0,0,0-5.344.918,8.548,8.548,0,0,0-3.75,2.663,6.506,6.506,0,0,0-1.368,4.144,7.156,7.156,0,0,0,2.662,5.681A12.914,12.914,0,0,0,162.782,217a8.522,8.522,0,0,1,5.025,1.856,4.8,4.8,0,0,1,1.65,3.656,4.044,4.044,0,0,1-1.95,3.544,8.431,8.431,0,0,1-4.763,1.294,9.519,9.519,0,0,1-4.387-1.013,5.51,5.51,0,0,1-2.663-2.475,2.159,2.159,0,0,0-.806-0.956,2.06,2.06,0,0,0-1.144-.356,1.359,1.359,0,0,0-.375.037,2.114,2.114,0,0,0-1.125.581,1.4,1.4,0,0,0-.412.994,2.034,2.034,0,0,0,.187.75,8.917,8.917,0,0,0,4.106,4.313,13.439,13.439,0,0,0,6.619,1.65h0Zm24.487-.225a10.626,10.626,0,0,0,5.344-1.332,9.441,9.441,0,0,0,3.656-3.693,11.611,11.611,0,0,0-.019-10.763,9.578,9.578,0,0,0-3.675-3.694,10.555,10.555,0,0,0-5.306-1.331,10.735,10.735,0,0,0-5.362,1.331,9.4,9.4,0,0,0-3.675,3.694,11.685,11.685,0,0,0,0,10.763,9.4,9.4,0,0,0,3.675,3.693,10.726,10.726,0,0,0,5.362,1.332h0Zm0-3.375a6.6,6.6,0,0,1-3.431-.9,6.338,6.338,0,0,1-2.381-2.494,7.469,7.469,0,0,1-.863-3.619,7.577,7.577,0,0,1,.863-3.637,6.31,6.31,0,0,1,2.381-2.513,6.99,6.99,0,0,1,6.862,0,6.194,6.194,0,0,1,2.363,2.513,7.731,7.731,0,0,1,.844,3.637,7.621,7.621,0,0,1-.844,3.619,6.22,6.22,0,0,1-2.363,2.494,6.6,6.6,0,0,1-3.431.9h0ZM223.868,209.8a8.759,8.759,0,0,0-3.75.787,7.83,7.83,0,0,0-2.812,2.175,6.6,6.6,0,0,0-2.494-2.194,7.5,7.5,0,0,0-3.431-.768,7.765,7.765,0,0,0-2.925.543,6.879,6.879,0,0,0-2.325,1.519,1.9,1.9,0,0,0-.563-1.331,1.862,1.862,0,0,0-1.35-.506,1.893,1.893,0,0,0-1.369.525,1.841,1.841,0,0,0-.543,1.387v16.688a1.949,1.949,0,0,0,3.3,1.368,1.893,1.893,0,0,0,.525-1.368V218.05a4.862,4.862,0,0,1,1.256-3.45,4.229,4.229,0,0,1,3.244-1.35,4.056,4.056,0,0,1,3.056,1.181,4.8,4.8,0,0,1,1.144,3.469v10.725a1.949,1.949,0,0,0,3.3,1.368,1.893,1.893,0,0,0,.525-1.368V218.05a4.862,4.862,0,0,1,1.256-3.45,4.185,4.185,0,0,1,3.206-1.35,4.055,4.055,0,0,1,3.056,1.181,4.794,4.794,0,0,1,1.144,3.469v10.725a1.949,1.949,0,0,0,3.3,1.368,1.889,1.889,0,0,0,.525-1.368V217.9a8.376,8.376,0,0,0-2.006-5.963,6.891,6.891,0,0,0-5.269-2.137h0Zm21.975,20.85a10.619,10.619,0,0,0,5.343-1.332,9.443,9.443,0,0,0,3.657-3.693,11.618,11.618,0,0,0-.019-10.763,9.585,9.585,0,0,0-3.675-3.694,10.561,10.561,0,0,0-5.306-1.331,10.737,10.737,0,0,0-5.363,1.331,9.412,9.412,0,0,0-3.675,3.694,11.693,11.693,0,0,0,0,10.763,9.4,9.4,0,0,0,3.675,3.693,10.727,10.727,0,0,0,5.363,1.332h0Zm0-3.375a6.606,6.606,0,0,1-3.432-.9,6.352,6.352,0,0,1-2.381-2.494,7.48,7.48,0,0,1-.862-3.619,7.587,7.587,0,0,1,.862-3.637,6.324,6.324,0,0,1,2.381-2.513,6.992,6.992,0,0,1,6.863,0,6.192,6.192,0,0,1,2.362,2.513,7.719,7.719,0,0,1,.844,3.637,7.609,7.609,0,0,1-.844,3.619,6.218,6.218,0,0,1-2.362,2.494,6.6,6.6,0,0,1-3.431.9h0Zm22.537,3.375a10.728,10.728,0,0,0,4.369-.807,6.243,6.243,0,0,0,2.756-2.212,5.529,5.529,0,0,0,.937-3.131,4.758,4.758,0,0,0-1.706-3.788,13.083,13.083,0,0,0-5.794-2.287,18.046,18.046,0,0,1-3.037-.844,3.317,3.317,0,0,1-1.425-.938,2.048,2.048,0,0,1-.375-1.256,1.791,1.791,0,0,1,1.106-1.631,6.069,6.069,0,0,1,2.831-.581,8.005,8.005,0,0,1,2.55.356,5.606,5.606,0,0,1,1.988,1.219,2.561,2.561,0,0,0,1.762.712,1.733,1.733,0,0,0,1.05-.3A1.5,1.5,0,0,0,276.03,214a1.906,1.906,0,0,0-.488-1.2,7.467,7.467,0,0,0-3.056-2.175,11.486,11.486,0,0,0-4.369-.788,10.94,10.94,0,0,0-3.75.638,6.62,6.62,0,0,0-2.85,1.912,4.633,4.633,0,0,0-1.087,3.113q0,4.538,7.2,5.925a11.434,11.434,0,0,1,3.937,1.293,2.265,2.265,0,0,1,1.163,1.932,2.156,2.156,0,0,1-1.181,1.912,6.451,6.451,0,0,1-3.319.713,7.958,7.958,0,0,1-3.038-.582,5.773,5.773,0,0,1-2.137-1.368,2.007,2.007,0,0,0-1.425-.675,2.275,2.275,0,0,0-1.313.525,1.746,1.746,0,0,0-.75,1.462,1.589,1.589,0,0,0,.488,1.163,9.192,9.192,0,0,0,3.525,2.062,14.423,14.423,0,0,0,4.8.788h0Zm31.312-20.813a10.391,10.391,0,0,0-5.269,1.369,9.873,9.873,0,0,0-3.731,3.75,10.57,10.57,0,0,0-1.35,5.306,11.2,11.2,0,0,0,1.256,5.306,9.478,9.478,0,0,0,3.45,3.732,9.355,9.355,0,0,0,12.132-2.063v1.388a1.913,1.913,0,1,0,3.825,0v-8.363a10.461,10.461,0,0,0-1.369-5.306,10.117,10.117,0,0,0-8.944-5.119h0Zm0,17.438a6.426,6.426,0,0,1-3.394-.919,6.627,6.627,0,0,1-2.4-2.513,7.276,7.276,0,0,1-.881-3.581,7.387,7.387,0,0,1,.881-3.6,6.606,6.606,0,0,1,2.4-2.531,6.53,6.53,0,0,1,9.169,2.531,7.511,7.511,0,0,1,.863,3.6,7.4,7.4,0,0,1-.863,3.581,6.448,6.448,0,0,1-5.775,3.432h0Zm25.387-17.438a10.184,10.184,0,0,0-5.231,1.369,10.082,10.082,0,0,0-3.712,3.75,10.451,10.451,0,0,0-1.369,5.306v17.1a1.841,1.841,0,0,0,.544,1.388,1.9,1.9,0,0,0,3.281-1.388V227.237a9.441,9.441,0,0,0,12.131,2.063,9.471,9.471,0,0,0,3.45-3.732,11.2,11.2,0,0,0,1.256-5.306,10.57,10.57,0,0,0-1.35-5.306,9.873,9.873,0,0,0-3.731-3.75,10.391,10.391,0,0,0-5.269-1.369h0Zm0,17.438a6.451,6.451,0,0,1-5.775-3.432,7.4,7.4,0,0,1-.862-3.581,7.51,7.51,0,0,1,.862-3.6,6.611,6.611,0,0,1,9.169-2.531,6.6,6.6,0,0,1,2.4,2.531,7.387,7.387,0,0,1,.881,3.6,7.276,7.276,0,0,1-.881,3.581,6.62,6.62,0,0,1-2.4,2.513,6.424,6.424,0,0,1-3.394.919h0Zm24.412-17.438a10.385,10.385,0,0,0-5.268,1.369,9.868,9.868,0,0,0-3.732,3.75,10.57,10.57,0,0,0-1.35,5.306,11.187,11.187,0,0,0,1.257,5.306,9.464,9.464,0,0,0,3.45,3.732,9.354,9.354,0,0,0,12.131-2.063v1.388a1.913,1.913,0,1,0,3.825,0v-8.363a10.461,10.461,0,0,0-1.369-5.306,10.114,10.114,0,0,0-8.944-5.119h0Zm0,17.438a6.42,6.42,0,0,1-3.393-.919,6.612,6.612,0,0,1-2.4-2.513,7.265,7.265,0,0,1-.882-3.581,7.377,7.377,0,0,1,.882-3.6,6.592,6.592,0,0,1,2.4-2.531,6.529,6.529,0,0,1,9.168,2.531,7.511,7.511,0,0,1,.863,3.6,7.4,7.4,0,0,1-.863,3.581,6.448,6.448,0,0,1-5.775,3.432h0Zm17.362,3.225a1.841,1.841,0,0,0,1.388-.544,1.891,1.891,0,0,0,.525-1.369V211.9a1.95,1.95,0,0,0-3.281-1.388,1.841,1.841,0,0,0-.544,1.388v16.687a1.86,1.86,0,0,0,1.912,1.913h0Zm0-23.85a2.5,2.5,0,1,0-1.743-.732,2.379,2.379,0,0,0,1.743.732h0Zm23.662,20.962-5.962-7.125,5.662-7.387a2.385,2.385,0,0,0,.525-1.5,1.631,1.631,0,0,0-.431-1.144,1.528,1.528,0,0,0-1.181-.469,1.645,1.645,0,0,0-1.388.638l-5.512,7.35-6.15-7.35a1.75,1.75,0,0,0-1.425-.638,1.608,1.608,0,0,0-1.219.45,1.514,1.514,0,0,0-.431,1.088,2.195,2.195,0,0,0,.562,1.425l6.188,7.312-5.813,7.275a2.141,2.141,0,0,0-.525,1.388,1.514,1.514,0,0,0,1.613,1.575,1.786,1.786,0,0,0,1.35-.6l5.662-7.125L388,229.9a1.58,1.58,0,0,0,1.35.6,1.688,1.688,0,0,0,1.219-.45,1.5,1.5,0,0,0,.468-1.125,1.864,1.864,0,0,0-.525-1.313h0Zm11.813,3.038a10.626,10.626,0,0,0,5.344-1.332,9.441,9.441,0,0,0,3.656-3.693,11.618,11.618,0,0,0-.019-10.763,9.578,9.578,0,0,0-3.675-3.694,10.555,10.555,0,0,0-5.306-1.331,10.739,10.739,0,0,0-5.363,1.331,9.412,9.412,0,0,0-3.675,3.694,11.693,11.693,0,0,0,0,10.763,9.4,9.4,0,0,0,3.675,3.693,10.729,10.729,0,0,0,5.363,1.332h0Zm0-3.375a6.6,6.6,0,0,1-3.431-.9,6.348,6.348,0,0,1-2.382-2.494,7.48,7.48,0,0,1-.862-3.619,7.587,7.587,0,0,1,.862-3.637,6.32,6.32,0,0,1,2.382-2.513,6.99,6.99,0,0,1,6.862,0,6.194,6.194,0,0,1,2.363,2.513,7.73,7.73,0,0,1,.843,3.637,7.62,7.62,0,0,1-.843,3.619,6.22,6.22,0,0,1-2.363,2.494,6.6,6.6,0,0,1-3.431.9h0ZM427.6,209.8a9.452,9.452,0,0,0-3.525.656,8.323,8.323,0,0,0-2.85,1.856V211.9a1.951,1.951,0,0,0-3.282-1.388,1.844,1.844,0,0,0-.543,1.388v16.725a1.949,1.949,0,0,0,3.3,1.368,1.893,1.893,0,0,0,.525-1.368V218.05a4.27,4.27,0,0,1,.731-2.438,5.088,5.088,0,0,1,2.025-1.725,6.4,6.4,0,0,1,2.869-.637,5.535,5.535,0,0,1,5.962,6.15v9.225a1.913,1.913,0,1,0,3.825,0V219.4a10.82,10.82,0,0,0-1.162-5.194,7.939,7.939,0,0,0-3.225-3.281,9.553,9.553,0,0,0-4.65-1.125h0Zm23.737,0.037a10.386,10.386,0,0,0-5.269,1.369,9.866,9.866,0,0,0-3.731,3.75,10.57,10.57,0,0,0-1.35,5.306,11.186,11.186,0,0,0,1.256,5.306,9.464,9.464,0,0,0,3.45,3.732,9.151,9.151,0,0,0,4.894,1.35,9.216,9.216,0,0,0,7.237-3.413v1.388a1.913,1.913,0,1,0,3.825,0v-8.363a10.451,10.451,0,0,0-1.369-5.306,10.114,10.114,0,0,0-8.943-5.119h0Zm0,17.438a6.421,6.421,0,0,1-3.394-.919,6.612,6.612,0,0,1-2.4-2.513,7.265,7.265,0,0,1-.881-3.581,7.376,7.376,0,0,1,.881-3.6,6.592,6.592,0,0,1,2.4-2.531,6.531,6.531,0,0,1,9.169,2.531,7.522,7.522,0,0,1,.862,3.6,7.408,7.408,0,0,1-.862,3.581,6.451,6.451,0,0,1-5.775,3.432h0Zm32.774-26.063a1.893,1.893,0,0,0-1.369.525,1.844,1.844,0,0,0-.543,1.388V213.25a9.442,9.442,0,0,0-12.132-2.063,9.482,9.482,0,0,0-3.45,3.731,11.2,11.2,0,0,0-1.256,5.307,10.567,10.567,0,0,0,1.35,5.306,9.859,9.859,0,0,0,3.731,3.75,10.381,10.381,0,0,0,5.269,1.369,10.117,10.117,0,0,0,8.944-5.119,10.459,10.459,0,0,0,1.369-5.306v-17.1a1.8,1.8,0,0,0-1.913-1.913h0Zm-8.4,26.063a6.426,6.426,0,0,1-3.394-.919,6.592,6.592,0,0,1-2.4-2.531,7.387,7.387,0,0,1-.881-3.6,7.285,7.285,0,0,1,.881-3.582,6.639,6.639,0,0,1,2.4-2.512,6.549,6.549,0,0,1,9.169,2.512,7.406,7.406,0,0,1,.863,3.582,7.511,7.511,0,0,1-.863,3.6,6.419,6.419,0,0,1-5.775,3.45h0Zm25.425,3.375a10.619,10.619,0,0,0,5.343-1.332,9.443,9.443,0,0,0,3.657-3.693,11.618,11.618,0,0,0-.019-10.763,9.585,9.585,0,0,0-3.675-3.694,10.561,10.561,0,0,0-5.306-1.331,10.737,10.737,0,0,0-5.363,1.331,9.412,9.412,0,0,0-3.675,3.694,11.693,11.693,0,0,0,0,10.763,9.4,9.4,0,0,0,3.675,3.693,10.727,10.727,0,0,0,5.363,1.332h0Zm0-3.375a6.606,6.606,0,0,1-3.432-.9,6.352,6.352,0,0,1-2.381-2.494,7.48,7.48,0,0,1-.862-3.619,7.587,7.587,0,0,1,.862-3.637,6.324,6.324,0,0,1,2.381-2.513,6.992,6.992,0,0,1,6.863,0,6.192,6.192,0,0,1,2.362,2.513,7.719,7.719,0,0,1,.844,3.637,7.609,7.609,0,0,1-.844,3.619,6.218,6.218,0,0,1-2.362,2.494,6.6,6.6,0,0,1-3.431.9h0Zm22.537,3.375a10.728,10.728,0,0,0,4.369-.807,6.243,6.243,0,0,0,2.756-2.212,5.529,5.529,0,0,0,.937-3.131,4.758,4.758,0,0,0-1.706-3.788,13.083,13.083,0,0,0-5.794-2.287,18.046,18.046,0,0,1-3.037-.844,3.317,3.317,0,0,1-1.425-.938,2.048,2.048,0,0,1-.375-1.256,1.791,1.791,0,0,1,1.106-1.631,6.069,6.069,0,0,1,2.831-.581,8.005,8.005,0,0,1,2.55.356,5.606,5.606,0,0,1,1.988,1.219,2.561,2.561,0,0,0,1.762.712,1.733,1.733,0,0,0,1.05-.3,1.5,1.5,0,0,0,.638-1.162,1.906,1.906,0,0,0-.488-1.2,7.467,7.467,0,0,0-3.056-2.175,11.486,11.486,0,0,0-4.369-.788,10.94,10.94,0,0,0-3.75.638,6.62,6.62,0,0,0-2.85,1.912,4.633,4.633,0,0,0-1.087,3.113q0,4.538,7.2,5.925a11.434,11.434,0,0,1,3.937,1.293,2.265,2.265,0,0,1,1.163,1.932,2.156,2.156,0,0,1-1.181,1.912,6.451,6.451,0,0,1-3.319.713,7.958,7.958,0,0,1-3.038-.582,5.773,5.773,0,0,1-2.137-1.368,2.007,2.007,0,0,0-1.425-.675,2.275,2.275,0,0,0-1.313.525,1.746,1.746,0,0,0-.75,1.462,1.589,1.589,0,0,0,.488,1.163,9.192,9.192,0,0,0,3.525,2.062,14.423,14.423,0,0,0,4.8.788h0ZM556,209.837a10.114,10.114,0,0,0-8.944,5.119,10.451,10.451,0,0,0-1.369,5.306v17.1a1.841,1.841,0,0,0,.544,1.388,1.9,1.9,0,0,0,3.281-1.388V227.237a9.441,9.441,0,0,0,12.131,2.063,9.464,9.464,0,0,0,3.45-3.732,11.187,11.187,0,0,0,1.257-5.306,10.57,10.57,0,0,0-1.35-5.306,9.868,9.868,0,0,0-3.732-3.75A10.387,10.387,0,0,0,556,209.837h0Zm0,17.438a6.448,6.448,0,0,1-5.775-3.432,7.386,7.386,0,0,1-.863-3.581,7.5,7.5,0,0,1,.863-3.6,6.61,6.61,0,0,1,9.168-2.531,6.592,6.592,0,0,1,2.4,2.531,7.377,7.377,0,0,1,.882,3.6,7.265,7.265,0,0,1-.882,3.581,6.612,6.612,0,0,1-2.4,2.513,6.423,6.423,0,0,1-3.393.919h0Zm24.412,3.375a10.619,10.619,0,0,0,5.343-1.332,9.443,9.443,0,0,0,3.657-3.693,11.618,11.618,0,0,0-.019-10.763,9.585,9.585,0,0,0-3.675-3.694,10.561,10.561,0,0,0-5.306-1.331,10.737,10.737,0,0,0-5.363,1.331,9.412,9.412,0,0,0-3.675,3.694,11.693,11.693,0,0,0,0,10.763,9.4,9.4,0,0,0,3.675,3.693,10.727,10.727,0,0,0,5.363,1.332h0Zm0-3.375a6.606,6.606,0,0,1-3.432-.9,6.352,6.352,0,0,1-2.381-2.494,7.48,7.48,0,0,1-.862-3.619,7.587,7.587,0,0,1,.862-3.637,6.324,6.324,0,0,1,2.381-2.513,6.992,6.992,0,0,1,6.863,0,6.192,6.192,0,0,1,2.362,2.513,7.719,7.719,0,0,1,.844,3.637,7.609,7.609,0,0,1-.844,3.619,6.218,6.218,0,0,1-2.362,2.494,6.6,6.6,0,0,1-3.431.9h0Zm25.124-17.513a8.418,8.418,0,0,0-3.525.75,7.925,7.925,0,0,0-2.775,2.063v-0.713a1.657,1.657,0,0,0-1.875-1.875,1.7,1.7,0,0,0-1.875,1.875v16.763a1.864,1.864,0,0,0,.488,1.406,1.917,1.917,0,0,0,1.387.469,1.868,1.868,0,0,0,1.407-.488,1.921,1.921,0,0,0,.468-1.387v-10.95a3.957,3.957,0,0,1,1.65-3.338,7.07,7.07,0,0,1,4.35-1.237,14.886,14.886,0,0,1,2.438.262,3.052,3.052,0,0,0,.562.075,1.45,1.45,0,0,0,1.5-1.2,1.311,1.311,0,0,0,.038-0.375,1.744,1.744,0,0,0-1.125-1.5,6.7,6.7,0,0,0-3.113-.6h0Zm27.6,0.075a10.117,10.117,0,0,0-8.944,5.119,10.451,10.451,0,0,0-1.369,5.306v17.1a1.841,1.841,0,0,0,.544,1.388,1.9,1.9,0,0,0,3.281-1.388V227.237a9.442,9.442,0,0,0,12.132,2.063,9.478,9.478,0,0,0,3.45-3.732,11.2,11.2,0,0,0,1.256-5.306,10.57,10.57,0,0,0-1.35-5.306,9.873,9.873,0,0,0-3.731-3.75,10.391,10.391,0,0,0-5.269-1.369h0Zm0,17.438a6.448,6.448,0,0,1-5.775-3.432,7.4,7.4,0,0,1-.863-3.581,7.511,7.511,0,0,1,.863-3.6,6.611,6.611,0,0,1,9.169-2.531,6.606,6.606,0,0,1,2.4,2.531,7.387,7.387,0,0,1,.881,3.6,7.276,7.276,0,0,1-.881,3.581,6.627,6.627,0,0,1-2.4,2.513,6.426,6.426,0,0,1-3.394.919h0Zm33.524-7.35a11.748,11.748,0,0,0-1.125-5.25,8.409,8.409,0,0,0-3.225-3.563,9.433,9.433,0,0,0-4.987-1.275,10.275,10.275,0,0,0-5.231,1.331,9.355,9.355,0,0,0-3.6,3.713,11.083,11.083,0,0,0-1.294,5.381,10.494,10.494,0,0,0,1.369,5.363,9.652,9.652,0,0,0,3.806,3.693,11.444,11.444,0,0,0,9.131.694,10.377,10.377,0,0,0,3.169-1.65,1.358,1.358,0,0,0,.6-1.125,1.64,1.64,0,0,0-.675-1.275,1.614,1.614,0,0,0-1.125-.375,1.946,1.946,0,0,0-1.238.413,7,7,0,0,1-2.006,1.012,7.279,7.279,0,0,1-2.344.413,7.354,7.354,0,0,1-4.818-1.613,6.6,6.6,0,0,1-2.382-4.237h14.25a1.712,1.712,0,0,0,1.238-.469,1.568,1.568,0,0,0,.487-1.181h0Zm-9.337-6.863a5.5,5.5,0,0,1,4.012,1.5,6.648,6.648,0,0,1,1.875,4.013H650.724a6.732,6.732,0,0,1,2.156-4.013,6.488,6.488,0,0,1,4.444-1.5h0Zm22.012,13.688h-1.275a2.521,2.521,0,0,1-2.025-1.013,3.846,3.846,0,0,1-.825-2.512v-9.263H678.4a1.805,1.805,0,0,0,1.275-.45,1.468,1.468,0,0,0,.488-1.125,1.555,1.555,0,0,0-.488-1.2,1.805,1.805,0,0,0-1.275-.45h-3.187v-5.4a1.876,1.876,0,1,0-3.75,0v5.4h-1.725a1.805,1.805,0,0,0-1.275.45,1.555,1.555,0,0,0-.488,1.2,1.468,1.468,0,0,0,.488,1.125,1.805,1.805,0,0,0,1.275.45h1.725v9.263a7.89,7.89,0,0,0,.862,3.712,6.648,6.648,0,0,0,2.382,2.606,6.167,6.167,0,0,0,3.356.957h0.675a2.38,2.38,0,0,0,1.594-.525,1.691,1.691,0,0,0,.618-1.35,1.953,1.953,0,0,0-.468-1.35,1.478,1.478,0,0,0-1.144-.525h0Zm12.824,3.9a10.728,10.728,0,0,0,4.369-.807,6.243,6.243,0,0,0,2.756-2.212,5.523,5.523,0,0,0,.938-3.131,4.758,4.758,0,0,0-1.706-3.788,13.083,13.083,0,0,0-5.794-2.287,18.09,18.09,0,0,1-3.038-.844,3.324,3.324,0,0,1-1.425-.938,2.048,2.048,0,0,1-.375-1.256,1.792,1.792,0,0,1,1.107-1.631,6.069,6.069,0,0,1,2.831-.581,8.005,8.005,0,0,1,2.55.356,5.6,5.6,0,0,1,1.987,1.219,2.561,2.561,0,0,0,1.763.712,1.735,1.735,0,0,0,1.05-.3A1.5,1.5,0,0,0,699.81,214a1.9,1.9,0,0,0-.487-1.2,7.467,7.467,0,0,0-3.056-2.175,11.486,11.486,0,0,0-4.369-.788,10.936,10.936,0,0,0-3.75.638,6.62,6.62,0,0,0-2.85,1.912,4.634,4.634,0,0,0-1.088,3.113q0,4.538,7.2,5.925a11.441,11.441,0,0,1,3.938,1.293,2.266,2.266,0,0,1,1.162,1.932,2.154,2.154,0,0,1-1.181,1.912,6.449,6.449,0,0,1-3.319.713,7.953,7.953,0,0,1-3.037-.582,5.778,5.778,0,0,1-2.138-1.368,2.007,2.007,0,0,0-1.425-.675,2.272,2.272,0,0,0-1.312.525,1.743,1.743,0,0,0-.75,1.462,1.588,1.588,0,0,0,.487,1.163,9.2,9.2,0,0,0,3.525,2.062,14.427,14.427,0,0,0,4.8.788h0Z" transform="translate(-151.844 -98.281)"/>
</svg>
