<svg width="14" height="14" viewBox="0 0 14 14" xmlns="http://www.w3.org/2000/svg">
<path d="M4.2 11.2C3.43 11.2 2.8 11.83 2.8 12.6C2.8 13.37 3.43 14 4.2 14C4.97 14 5.6 13.37 5.6 12.6C5.6 11.83 4.97 11.2 4.2 11.2ZM0.7 0C0.313401 0 0 0.313401 0 0.7C0 1.0866 0.313401 1.4 0.7 1.4H0.857407C1.18875 1.4 1.49043 1.59092 1.63228 1.89036L3.69428 6.24349C3.83554 6.5417 3.82059 6.89041 3.65432 7.17544L2.99217 8.31057C2.95748 8.37003 2.92856 8.43275 2.90876 8.49868C2.85059 8.69237 2.8 8.92148 2.8 9.1C2.8 9.87 3.43 10.5 4.2 10.5H11.9C12.2866 10.5 12.6 10.1866 12.6 9.8C12.6 9.4134 12.2866 9.1 11.9 9.1H4.48C4.41 9.1 4.34 9.03 4.34 8.96C4.34 8.91401 4.35125 8.86873 4.37277 8.82808L4.68829 8.23208C4.8616 7.90472 5.20167 7.69997 5.57208 7.69997H10.15C10.71 7.69997 11.13 7.41997 11.34 6.99997L13.7918 2.5731C13.8371 2.49144 13.9001 2.42103 13.9501 2.34217C14 2.26337 14 2.19929 14 2.1C14 1.68 13.72 1.4 13.3 1.4H3.58659C3.19308 1.4 2.83615 1.16922 2.67466 0.810365L2.57534 0.589635C2.41385 0.230784 2.05692 0 1.66341 0H0.7ZM11.2 11.2C10.43 11.2 9.8 11.83 9.8 12.6C9.8 13.37 10.43 14 11.2 14C11.97 14 12.6 13.37 12.6 12.6C12.6 11.83 11.97 11.2 11.2 11.2Z" fill="#585B5E"/>
</svg>
