<svg id="Agrupar_1" data-name="Agrupar 1" xmlns="http://www.w3.org/2000/svg" width="128" height="128" viewBox="0 0 128 128">
  <defs>
    <style>
      .cls-1 {
        fill: #fff;
      }

      .cls-2 {
        fill: none;
        stroke: #3bb139;
        stroke-linecap: round;
        stroke-linejoin: round;
        stroke-width: 10px;
      }

      .cls-2, .cls-3 {
        fill-rule: evenodd;
      }

      .cls-3 {
        fill: #3bb139;
      }
    </style>
  </defs>
  <rect id="Retângulo_1" data-name="Retângulo 1" class="cls-1" width="128" height="128"/>
  <path id="Forma_3" data-name="Forma 3" class="cls-2" d="M58.761,95.787A32.2,32.2,0,0,1,47.3,103.028c-6.571,2.715-19.135,2.506-27.114-2.286-0.768-.462-3.18-2.145-3.819-2.668a40.483,40.483,0,0,1-6.5-7.445C1.091,77.5,6.824,66.058,6.824,66.058s0.758-2.156,4.583-3.049c1.55-.362,4,0.013,6.492,0,6.226-.031,11.075,0,11.075,0a10.685,10.685,0,0,0,2.673-.762,11.558,11.558,0,0,0,4.583-3.811,12.181,12.181,0,0,0,2.291-4.193C42.282,42.917,44.631,39,44.631,39S54.87,22.422,78.237,24.132c26.41,1.932,36.28,19.819,36.28,19.819a62.463,62.463,0,0,1,7.256,43.831c-3.247,15.92-21.768,17.151-21.768,17.151s-15.74,1.56-22.076-11.723c-0.3-.632-0.963-3.584-1.219-4.285-2.376-17.145-1.146-51.835-1.146-51.835"/>
  <path id="Elipse_1" data-name="Elipse 1" class="cls-3" d="M52.745,57.7a5.715,5.715,0,1,1-5.729,5.715A5.722,5.722,0,0,1,52.745,57.7Z"/>
</svg>
